<?xml version="1.0" encoding="UTF-8"?>
<svg version="1.1" xmlns="http://www.w3.org/2000/svg" width="48" height="48">
<path d="M0 0 C1.4540625 0.0309375 1.4540625 0.0309375 2.9375 0.0625 C2.9375 3.0325 2.9375 6.0025 2.9375 9.0625 C3.5975 9.0625 4.2575 9.0625 4.9375 9.0625 C5.2675 8.0725 5.5975 7.0825 5.9375 6.0625 C8.75 5.375 8.75 5.375 11.9375 5.0625 C13.8125 6.375 13.8125 6.375 14.9375 8.0625 C14.9375 8.7225 14.9375 9.3825 14.9375 10.0625 C15.5975 10.0625 16.2575 10.0625 16.9375 10.0625 C17.2675 9.0725 17.5975 8.0825 17.9375 7.0625 C20.3125 5.8125 20.3125 5.8125 22.9375 5.0625 C23.9275 5.3925 24.9175 5.7225 25.9375 6.0625 C25.9375 7.3825 25.9375 8.7025 25.9375 10.0625 C25.2775 10.0625 24.6175 10.0625 23.9375 10.0625 C23.89625 10.990625 23.855 11.91875 23.8125 12.875 C23.05821102 18.51476069 19.78580459 23.24564238 16.9375 28.0625 C14.9575 28.0625 12.9775 28.0625 10.9375 28.0625 C10.9375 26.4125 10.9375 24.7625 10.9375 23.0625 C9.9475 23.3925 8.9575 23.7225 7.9375 24.0625 C5.75 22.625 5.75 22.625 3.9375 21.0625 C2.638125 21.8359375 2.638125 21.8359375 1.3125 22.625 C-2.54940817 24.26988681 -4.05609416 23.91492677 -8.0625 23.0625 C-8.908125 23.248125 -9.75375 23.43375 -10.625 23.625 C-13.68492963 24.17421814 -15.3106348 23.39912024 -18.0625 22.0625 C-17.1875 17.3125 -17.1875 17.3125 -16.0625 15.0625 C-17.0525 14.7325 -18.0425 14.4025 -19.0625 14.0625 C-18.7325 11.7525 -18.4025 9.4425 -18.0625 7.0625 C-12.86701575 4.85441919 -9.47985797 5.12847276 -4.0625 6.0625 C-4.083125 5.258125 -4.10375 4.45375 -4.125 3.625 C-4.03366838 -0.11959638 -3.80090148 0.07756942 0 0 Z M7.9375 14.0625 C9.2575 16.3725 10.5775 18.6825 11.9375 21.0625 C12.5975 20.4025 13.2575 19.7425 13.9375 19.0625 C12.65687515 17.3550002 11.31982443 15.68876404 9.9375 14.0625 C9.2775 14.0625 8.6175 14.0625 7.9375 14.0625 Z " fill="#D20C5A" transform="translate(20.0625,9.9375)"/>
<path d="M0 0 C0 1.32 0 2.64 0 4 C-0.66 4 -1.32 4 -2 4 C-2.04125 4.928125 -2.0825 5.85625 -2.125 6.8125 C-2.87928898 12.45226069 -6.15169541 17.18314238 -9 22 C-10.98 22 -12.96 22 -15 22 C-15 20.35 -15 18.7 -15 17 C-15.99 17.33 -16.98 17.66 -18 18 C-18.99 17.34 -19.98 16.68 -21 16 C-20.34 14.68 -19.68 13.36 -19 12 C-18.34 12 -17.68 12 -17 12 C-16.67 11.34 -16.34 10.68 -16 10 C-15.34 10.66 -14.68 11.32 -14 12 C-14.33 11.01 -14.66 10.02 -15 9 C-14.01 8.67 -13.02 8.34 -12 8 C-12 7.34 -12 6.68 -12 6 C-11.01 5.67 -10.02 5.34 -9 5 C-8.855625 4.360625 -8.71125 3.72125 -8.5625 3.0625 C-8 1 -8 1 -6.1875 -0.3125 C-3.67700322 -1.10151327 -2.44507934 -0.87324262 0 0 Z " fill="#73298A" transform="translate(46,16)"/>
<path d="M0 0 C1.65 0 3.3 0 5 0 C4.67 4.29 4.34 8.58 4 13 C2.68 13.33 1.36 13.66 0 14 C-0.66 13.34 -1.32 12.68 -2 12 C-1.67 11.34 -1.34 10.68 -1 10 C-1.99 10.33 -2.98 10.66 -4 11 C-4 11.99 -4 12.98 -4 14 C-5.65 14.33 -7.3 14.66 -9 15 C-8.67 15.99 -8.34 16.98 -8 18 C-10.68243901 17.61679443 -12.09801411 16.92847619 -14.3125 15.3125 C-16 13 -16 13 -15.75 9.75 C-15.5025 8.8425 -15.255 7.935 -15 7 C-9.80451575 4.79191919 -6.41735797 5.06597276 -1 6 C-1.020625 5.195625 -1.04125 4.39125 -1.0625 3.5625 C-1 1 -1 1 0 0 Z " fill="#F0713D" transform="translate(17,10)"/>
<path d="M0 0 C0.33 0 0.66 0 1 0 C1 2.97 1 5.94 1 9 C1.66 9.33 2.32 9.66 3 10 C1.71480435 12.86697492 0.42870746 14.97607712 -2 17 C-2.66 17 -3.32 17 -4 17 C-4.33 17.66 -4.66 18.32 -5 19 C-7.33333333 19.33333333 -9.66666667 19.66666667 -12 20 C-12.33 20.66 -12.66 21.32 -13 22 C-15.31 22 -17.62 22 -20 22 C-19.67 20.35 -19.34 18.7 -19 17 C-17.33333333 17 -15.66666667 17 -14 17 C-14 16.34 -14 15.68 -14 15 C-12.35 14.67 -10.7 14.34 -9 14 C-10.25541557 11.48916886 -11.50063488 11.12874554 -14 10 C-11.36 10 -8.72 10 -6 10 C-5.67 10.99 -5.34 11.98 -5 13 C-4.01 13 -3.02 13 -2 13 C-1.34 8.71 -0.68 4.42 0 0 Z " fill="#E4292E" transform="translate(22,10)"/>
<path d="M0 0 C1.32 1.32 2.64 2.64 4 4 C4.94875 3.505 5.8975 3.01 6.875 2.5 C10 1 10 1 12 1 C11.49812446 5.31612964 10.86397305 8.64223849 8 12 C4.8125 12.3125 4.8125 12.3125 2 12 C2 10.35 2 8.7 2 7 C1.01 7.33 0.02 7.66 -1 8 C-1.99 7.34 -2.98 6.68 -4 6 C-3.34 4.68 -2.68 3.36 -2 2 C-1.34 2 -0.68 2 0 2 C0 1.34 0 0.68 0 0 Z " fill="#0F4DA0" transform="translate(29,26)"/>
<path d="M0 0 C1.32 0 2.64 0 4 0 C4.33 1.32 4.66 2.64 5 4 C5.66 4 6.32 4 7 4 C7 4.66 7 5.32 7 6 C6.01 6 5.02 6 4 6 C4 6.66 4 7.32 4 8 C2.68 8.33 1.36 8.66 0 9 C-1.125 2.25 -1.125 2.25 0 0 Z " fill="#DB3E8C" transform="translate(30,16)"/>
<path d="M0 0 C-0.66 0 -1.32 0 -2 0 C-2 2.64 -2 5.28 -2 8 C-3.98 8 -5.96 8 -8 8 C-9 5 -9 5 -7.75 2.375 C-5.26243332 -1.00098336 -3.9644264 -1.32147547 0 0 Z " fill="#E23356" transform="translate(32,16)"/>
<path d="M0 0 C2.64 0.33 5.28 0.66 8 1 C8 1.99 8 2.98 8 4 C6.35 4.33 4.7 4.66 3 5 C3.33 5.99 3.66 6.98 4 8 C2.68 7.67 1.36 7.34 0 7 C0 4.69 0 2.38 0 0 Z " fill="#EC4E3F" transform="translate(5,20)"/>
<path d="M0 0 C1.231394 3.69418201 0.64432764 6.2056261 0 10 C-1.875 10.625 -1.875 10.625 -4 11 C-4.66 10.34 -5.32 9.68 -6 9 C-5.67 8.34 -5.34 7.68 -5 7 C-7.64 7 -10.28 7 -13 7 C-13 6.67 -13 6.34 -13 6 C-11.52093108 5.97310784 -10.04172517 5.95365379 -8.5625 5.9375 C-7.73878906 5.92589844 -6.91507813 5.91429687 -6.06640625 5.90234375 C-4 6 -4 6 -3 7 C-2.01 4.69 -1.02 2.38 0 0 Z " fill="#EC4A3D" transform="translate(21,13)"/>
<path d="M0 0 C0 1.32 0 2.64 0 4 C-2.70879335 5.35439668 -5.00933268 5.06501451 -8 5 C-8 3.68 -8 2.36 -8 1 C-4.93251126 -0.86240388 -3.40254489 -1.2151946 0 0 Z " fill="#B54386" transform="translate(46,16)"/>
<path d="M0 0 C0.66 0.99 1.32 1.98 2 3 C1.67 3.99 1.34 4.98 1 6 C-3.455 6.495 -3.455 6.495 -8 7 C-8.33 6.01 -8.66 5.02 -9 4 C-7.88625 3.71125 -6.7725 3.4225 -5.625 3.125 C-1.99708908 2.30758671 -1.99708908 2.30758671 0 0 Z " fill="#3C2D8A" transform="translate(41,22)"/>
<path d="M0 0 C0.99 0.33 1.98 0.66 3 1 C1.68 3.64 0.36 6.28 -1 9 C-2.32 9 -3.64 9 -5 9 C-5.33 8.01 -5.66 7.02 -6 6 C-4.68 5.67 -3.36 5.34 -2 5 C-2 4.34 -2 3.68 -2 3 C-1.34 3 -0.68 3 0 3 C0 2.01 0 1.02 0 0 Z " fill="#0470B8" transform="translate(38,29)"/>
<path d="M0 0 C-4.25347222 4.73958333 -4.25347222 4.73958333 -7.6875 5.9375 C-8.450625 5.958125 -9.21375 5.97875 -10 6 C-10.66 5.34 -11.32 4.68 -12 4 C-10.68 4 -9.36 4 -8 4 C-7.67 3.01 -7.34 2.02 -7 1 C-4.53721199 -0.231394 -2.7204945 -0.07159196 0 0 Z " fill="#D30E42" transform="translate(17,28)"/>
<path d="M0 0 C0.66 0.33 1.32 0.66 2 1 C1.67 3.31 1.34 5.62 1 8 C-1.475 7.01 -1.475 7.01 -4 6 C-3.34 4.68 -2.68 3.36 -2 2 C-1.34 2 -0.68 2 0 2 C0 1.34 0 0.68 0 0 Z " fill="#4A328B" transform="translate(29,26)"/>
<path d="M0 0 C1.2065625 0.0309375 1.2065625 0.0309375 2.4375 0.0625 C2.4375 2.0625 2.4375 2.0625 1.01171875 3.60546875 C0.38910156 4.14816406 -0.23351562 4.69085938 -0.875 5.25 C-1.48988281 5.80042969 -2.10476562 6.35085937 -2.73828125 6.91796875 C-3.34027344 7.29566406 -3.94226563 7.67335938 -4.5625 8.0625 C-5.5525 7.7325 -6.5425 7.4025 -7.5625 7.0625 C-7.2325 6.4025 -6.9025 5.7425 -6.5625 5.0625 C-5.5725 5.3925 -4.5825 5.7225 -3.5625 6.0625 C-3.583125 5.258125 -3.60375 4.45375 -3.625 3.625 C-3.54067676 0.16774696 -3.45725304 0.08432324 0 0 Z " fill="#F58F36" transform="translate(19.5625,9.9375)"/>
<path d="M0 0 C0.33 0 0.66 0 1 0 C1 2.97 1 5.94 1 9 C1.66 9.33 2.32 9.66 3 10 C2.34 11.32 1.68 12.64 1 14 C0.01 13.67 -0.98 13.34 -2 13 C-1.34 8.71 -0.68 4.42 0 0 Z " fill="#E62A32" transform="translate(22,10)"/>
<path d="M0 0 C0 0.99 0 1.98 0 3 C-2.5 4.6875 -2.5 4.6875 -5 6 C-5.66 4.35 -6.32 2.7 -7 1 C-3.375 -1.125 -3.375 -1.125 0 0 Z " fill="#C10E72" transform="translate(29,25)"/>
<path d="M0 0 C0.99 0.33 1.98 0.66 3 1 C2.67 1.66 2.34 2.32 2 3 C1.34 3 0.68 3 0 3 C-0.33 3.66 -0.66 4.32 -1 5 C-2.98 5 -4.96 5 -7 5 C-7.33 4.01 -7.66 3.02 -8 2 C-6.865625 1.855625 -5.73125 1.71125 -4.5625 1.5625 C-1.19222799 1.38828522 -1.19222799 1.38828522 0 0 Z " fill="#E40916" transform="translate(18,24)"/>
<path d="M0 0 C0.99 0.66 1.98 1.32 3 2 C1.68 2.33 0.36 2.66 -1 3 C-1 3.99 -1 4.98 -1 6 C-2.65 6.33 -4.3 6.66 -6 7 C-5.67 6.01 -5.34 5.02 -5 4 C-4.34 4 -3.68 4 -3 4 C-2.67 3.01 -2.34 2.02 -2 1 C-1.34 0.67 -0.68 0.34 0 0 Z " fill="#DF0644" transform="translate(23,23)"/>
<path d="M0 0 C-0.66 0 -1.32 0 -2 0 C-2 0.66 -2 1.32 -2 2 C-2.66 2 -3.32 2 -4 2 C-4 3.65 -4 5.3 -4 7 C-4.99 7 -5.98 7 -7 7 C-6.74438677 4.6568787 -6.40729228 2.32156597 -6 0 C-3.50907189 -1.24546405 -2.58919267 -0.7767578 0 0 Z " fill="#F5943A" transform="translate(8,17)"/>
<path d="M0 0 C0.66 1.32 1.32 2.64 2 4 C2.66 4 3.32 4 4 4 C4 4.66 4 5.32 4 6 C3.01 6 2.02 6 1 6 C1 6.66 1 7.32 1 8 C0.01 8.33 -0.98 8.66 -2 9 C-1.855625 8.443125 -1.71125 7.88625 -1.5625 7.3125 C-0.97230872 4.88615805 -0.476571 2.45093655 0 0 Z " fill="#CC237B" transform="translate(33,16)"/>
<path d="M0 0 C1.98 0 3.96 0 6 0 C5.67 0.99 5.34 1.98 5 3 C3.02 3 1.04 3 -1 3 C-0.67 2.01 -0.34 1.02 0 0 Z " fill="#E90C12" transform="translate(4,29)"/>
<path d="M0 0 C1.32 0.66 2.64 1.32 4 2 C3.67 2.66 3.34 3.32 3 4 C1.02 4 -0.96 4 -3 4 C-2.01 2.68 -1.02 1.36 0 0 Z " fill="#9B549F" transform="translate(41,17)"/>
</svg>
